<svg xmlns="http://www.w3.org/2000/svg" width="304" height="48" viewBox="0 0 304 48"><g transform="translate(-808 -315)"><g transform="translate(936 315)"><rect width="48" height="48" rx="24" fill="rgba(248,175,175,0)"/><g transform="translate(14 14)"><rect width="20" height="20" fill="rgba(248,175,175,0)" opacity="0"/><g transform="translate(1.667 1.667)"><path d="M13.333,6.667a5,5,0,0,1,5,5V17.5H15V11.667a1.667,1.667,0,1,0-3.333,0V17.5H8.333V11.667A5,5,0,0,1,13.333,6.667Z" transform="translate(-1.667 -1.667)" fill="rgba(248,175,175,0)" stroke="#d9a3a3" stroke-linecap="round" stroke-linejoin="round" stroke-width="1.667"/><rect width="3.333" height="10" transform="translate(0 5.833)" fill="rgba(248,175,175,0)" stroke="#d9a3a3" stroke-linecap="round" stroke-linejoin="round" stroke-width="1.667"/><circle cx="1.667" cy="1.667" r="1.667" transform="translate(0 0)" fill="rgba(248,175,175,0)" stroke="#d9a3a3" stroke-linecap="round" stroke-linejoin="round" stroke-width="1.667"/></g></g></g><g transform="translate(1000 315)"><rect width="48" height="48" rx="24" fill="rgba(248,175,175,0)"/><g transform="translate(14 14)"><rect width="20" height="20" fill="rgba(248,175,175,0)" opacity="0"/><g transform="translate(1.667 1.667)"><path d="M18.783,5.35a2.316,2.316,0,0,0-1.616-1.667A60.022,60.022,0,0,0,10,3.333a54.752,54.752,0,0,0-7.167.384A2.315,2.315,0,0,0,1.217,5.383,24.145,24.145,0,0,0,.833,9.792a24.132,24.132,0,0,0,.384,4.441,2.316,2.316,0,0,0,1.616,1.6A54.752,54.752,0,0,0,10,16.217a54.752,54.752,0,0,0,7.167-.384,2.315,2.315,0,0,0,1.616-1.666,24.131,24.131,0,0,0,.384-4.375A24.143,24.143,0,0,0,18.783,5.35Z" transform="translate(-1.667 -1.667)" fill="rgba(248,175,175,0)" stroke="#d9a3a3" stroke-linecap="round" stroke-linejoin="round" stroke-width="1.667"/><path d="M8.125,12.517l4.792-2.725L8.125,7.067Z" transform="translate(-1.667 -1.667)" fill="rgba(248,175,175,0)" stroke="#d9a3a3" stroke-linecap="round" stroke-linejoin="round" stroke-width="1.667"/></g></g></g><g transform="translate(872 315)"><rect width="48" height="48" rx="24" fill="rgba(247,136,136,0)"/><g transform="translate(14 14)"><rect width="20" height="20" fill="rgba(247,136,136,0)" opacity="0"/><g transform="translate(0.833 2.491)"><path d="M19.167,2.5A9.094,9.094,0,0,1,16.55,3.775,3.733,3.733,0,0,0,10,6.275v.833A8.884,8.884,0,0,1,2.5,3.333s-3.333,7.5,4.167,10.834A9.7,9.7,0,0,1,.833,15.833C8.333,20,17.5,15.833,17.5,6.25a3.739,3.739,0,0,0-.067-.692A6.427,6.427,0,0,0,19.167,2.5Z" transform="translate(-0.833 -2.491)" fill="rgba(247,136,136,0)" stroke="#d9a3a3" stroke-linecap="round" stroke-linejoin="round" stroke-width="1.667"/></g></g></g><g transform="translate(808 315)"><rect width="48" height="48" rx="24" fill="rgba(248,175,175,0)"/><g transform="translate(14 14)"><rect width="20" height="20" fill="rgba(248,175,175,0)" opacity="0"/><g transform="translate(5.833 1.667)"><path d="M15,1.667H12.5A4.167,4.167,0,0,0,8.333,5.833v2.5h-2.5v3.334h2.5v6.666h3.334V11.667h2.5L15,8.333H11.667v-2.5A.833.833,0,0,1,12.5,5H15Z" transform="translate(-5.833 -1.667)" fill="rgba(248,175,175,0)" stroke="#d9a3a3" stroke-linecap="round" stroke-linejoin="round" stroke-width="1.667"/></g></g></g><g transform="translate(1064 315)"><rect width="48" height="48" rx="24" fill="rgba(248,175,175,0)"/><g transform="translate(14 14)"><rect width="20" height="20" fill="rgba(248,175,175,0)" opacity="0"/><g transform="translate(1.667 3.333)"><path d="M18.333,14.1v2.5a1.667,1.667,0,0,1-1.816,1.667,16.488,16.488,0,0,1-7.192-2.559,16.24,16.24,0,0,1-5-5A16.488,16.488,0,0,1,1.767,3.483,1.667,1.667,0,0,1,3.425,1.667h2.5A1.666,1.666,0,0,1,7.592,3.1a10.68,10.68,0,0,0,.583,2.342A1.665,1.665,0,0,1,7.8,7.2L6.742,8.258a13.319,13.319,0,0,0,5,5L12.8,12.2a1.665,1.665,0,0,1,1.758-.375,10.68,10.68,0,0,0,2.342.583A1.667,1.667,0,0,1,18.333,14.1Z" transform="translate(-1.667 -3.333)" fill="rgba(248,175,175,0)" stroke="#d9a3a3" stroke-linecap="round" stroke-linejoin="round" stroke-width="1.667"/></g></g></g></g></svg>