<svg xmlns="http://www.w3.org/2000/svg" width="240" height="82" viewBox="0 0 240 82"><g transform="translate(-563 -1782)"><text transform="translate(683 1860)" fill="#3d3d3d" font-size="13" font-family="NotoSans-Bold, Noto Sans" font-weight="700" letter-spacing="0.03em"><tspan x="-72.196" y="0">Example@email.com </tspan></text><g transform="translate(691 1782)"><g fill="#fff" stroke="#3e3e3e" stroke-width="2"><rect width="48" height="48" rx="24" stroke="none"/><rect x="1" y="1" width="46" height="46" rx="23" fill="none"/></g><g transform="translate(14 14)"><rect width="20" height="20" fill="rgba(253,73,198,0.35)" opacity="0"/><g transform="translate(1.667 1.667)"><path d="M13.333,6.667a5,5,0,0,1,5,5V17.5H15V11.667a1.667,1.667,0,1,0-3.333,0V17.5H8.333V11.667A5,5,0,0,1,13.333,6.667Z" transform="translate(-1.667 -1.667)" fill="none" stroke="#3e3e3e" stroke-linecap="round" stroke-linejoin="round" stroke-width="1.667"/><rect width="3.333" height="10" transform="translate(0 5.833)" fill="none" stroke="#3e3e3e" stroke-linecap="round" stroke-linejoin="round" stroke-width="1.667"/><circle cx="1.667" cy="1.667" r="1.667" transform="translate(0 0)" fill="none" stroke="#3e3e3e" stroke-linecap="round" stroke-linejoin="round" stroke-width="1.667"/></g></g></g><g transform="translate(755 1782)"><g fill="#fff" stroke="#3e3e3e" stroke-width="2"><rect width="48" height="48" rx="24" stroke="none"/><rect x="1" y="1" width="46" height="46" rx="23" fill="none"/></g><g transform="translate(14 14)"><rect width="20" height="20" fill="rgba(253,73,198,0.35)" opacity="0"/><g transform="translate(1.667 1.667)"><path d="M18.783,5.35a2.316,2.316,0,0,0-1.616-1.667A60.022,60.022,0,0,0,10,3.333a54.752,54.752,0,0,0-7.167.384A2.315,2.315,0,0,0,1.217,5.383,24.145,24.145,0,0,0,.833,9.792a24.132,24.132,0,0,0,.384,4.441,2.316,2.316,0,0,0,1.616,1.6A54.752,54.752,0,0,0,10,16.217a54.752,54.752,0,0,0,7.167-.384,2.315,2.315,0,0,0,1.616-1.666,24.131,24.131,0,0,0,.384-4.375A24.143,24.143,0,0,0,18.783,5.35Z" transform="translate(-1.667 -1.667)" fill="none" stroke="#3e3e3e" stroke-linecap="round" stroke-linejoin="round" stroke-width="1.667"/><path d="M8.125,12.517l4.792-2.725L8.125,7.067Z" transform="translate(-1.667 -1.667)" fill="none" stroke="#3e3e3e" stroke-linecap="round" stroke-linejoin="round" stroke-width="1.667"/></g></g></g><g transform="translate(627 1782)"><g fill="#fff" stroke="#3e3e3e" stroke-width="2"><rect width="48" height="48" rx="24" stroke="none"/><rect x="1" y="1" width="46" height="46" rx="23" fill="none"/></g><g transform="translate(14 14)"><rect width="20" height="20" fill="rgba(253,73,198,0.35)" opacity="0"/><g transform="translate(0.833 2.491)"><path d="M19.167,2.5A9.094,9.094,0,0,1,16.55,3.775,3.733,3.733,0,0,0,10,6.275v.833A8.884,8.884,0,0,1,2.5,3.333s-3.333,7.5,4.167,10.834A9.7,9.7,0,0,1,.833,15.833C8.333,20,17.5,15.833,17.5,6.25a3.739,3.739,0,0,0-.067-.692A6.427,6.427,0,0,0,19.167,2.5Z" transform="translate(-0.833 -2.491)" fill="none" stroke="#3e3e3e" stroke-linecap="round" stroke-linejoin="round" stroke-width="1.667"/></g></g></g><g transform="translate(563 1782)"><g fill="#fff" stroke="#3e3e3e" stroke-width="2"><rect width="48" height="48" rx="24" stroke="none"/><rect x="1" y="1" width="46" height="46" rx="23" fill="none"/></g><g transform="translate(14 14)"><rect width="20" height="20" fill="rgba(253,73,198,0.35)" opacity="0"/><g transform="translate(5.833 1.667)"><path d="M15,1.667H12.5A4.167,4.167,0,0,0,8.333,5.833v2.5h-2.5v3.334h2.5v6.666h3.334V11.667h2.5L15,8.333H11.667v-2.5A.833.833,0,0,1,12.5,5H15Z" transform="translate(-5.833 -1.667)" fill="none" stroke="#3e3e3e" stroke-linecap="round" stroke-linejoin="round" stroke-width="1.667"/></g></g></g></g></svg>